<svg width="23" height="23" viewBox="0 0 23 23" fill="none" xmlns="http://www.w3.org/2000/svg">
<path d="M20 0H2.4C1.07452 0 0 1.07238 0 2.39522V19.9602C0 21.283 1.07452 22.3554 2.4 22.3554H9.2625V14.755H6.1125V11.1777H9.2625V8.45113C9.2625 5.34982 11.1125 3.63674 13.946 3.63674C15.303 3.63674 16.722 3.87826 16.722 3.87826V6.92218H15.1585C13.618 6.92218 13.1375 7.87628 13.1375 8.85482V11.1777H16.5765L16.0265 14.755H13.1375V22.3554H20C21.3255 22.3554 22.4 21.283 22.4 19.9602V2.39522C22.4 1.07238 21.3255 0 20 0V0Z" fill="#212322"/>
</svg>
