<svg width="21" height="21" viewBox="0 0 21 21" fill="none" xmlns="http://www.w3.org/2000/svg">
<path fill-rule="evenodd" clip-rule="evenodd" d="M17.7801 0.14052C18.0121 0.0439123 18.2465 0 18.4757 0C19.7653 0 20.8821 1.39282 20.3393 2.69382L12.6633 19.2919C12.2929 20.0839 11.5949 20.4392 10.9029 20.4392C9.92174 20.4392 8.95334 19.7238 8.95334 18.5258V11.5034H1.91694C-0.12986 11.5034 -0.76946 8.69464 1.14934 7.80083L17.7801 0.14052ZM11.5037 18.7522L19.1777 2.15889C19.2533 1.97526 19.1681 1.77086 19.0805 1.63953C18.9357 1.42276 18.6929 1.27705 18.4761 1.27705C18.4073 1.27705 18.3409 1.29062 18.2725 1.31897L1.68534 8.96012C1.24654 9.16451 1.25334 9.52579 1.29734 9.72259C1.33134 9.87429 1.45894 10.2268 1.91694 10.2268H10.2321V18.5262C10.2321 19.0296 10.6705 19.1626 10.9025 19.1626C11.1741 19.1626 11.3765 19.0244 11.5037 18.7522Z" fill="black"/>
</svg>
